<?xml version="1.0" encoding="UTF-8" standalone="no"?>
<svg
   xmlns="http://www.w3.org/2000/svg"
   version="1.1"
   width="200"
   height="160"

>
  <meta
     name="author"
     content="Григорчук Александр"
  />
  <desc>Логотип ООО АЗОВГАЗ</desc>
  <g
     id="logo"
     transform="matrix(0.38824645,0,0,0.38824645,-4.3374408,-3.8824645)"
  >
    <g
       id="flame"
       transform="translate(-95,-40)"
    >
      <path
         d="M 400,50 Q 180,250 348,400 C 248,250 428,140 400,50 Z"
         transform="translate(-25,0)"
         id="path3404"
         style="fill:#4671d5"
      />
      <path
         d="M 400,50 Q 180,250 348,400 C 248,250 428,140 400,50 Z"
         transform="matrix(-1,0,0,-1,824,499)"
         id="path3406"
         style="fill:#4671d5"
      />
      <path
         d="m 400,450 q -20,-8 -52,-50 C 248,250 428,140 400,50 q 30,20 52,50 c 95,145 -90,280 -52,350 z"
         id="path3408"
         style="fill:#ffbf40"
      />
    </g>
  </g>
</svg>
